# xmcd
#
# Track frame offsets:
# 150
# 14957
# 31317
# 42930
# 56085
# 64902
# 79002
# 93145
# 109590
# 120270
# 132725
# 144362
#
# Disc length: 2099 seconds
#
#
# Revision: 0
# Processed by: cddbd v1.5.1PL0 Copyright (c) Steve Scherf et al.
# Submitted via: FreeRIP 2.942 
#
DISCID=a208310c
DTITLE=Leandro e Leonardo (Douglas e Jose) - Tributo a Leandro e Leonardo (outros interpletes)
DYEAR=1900
DGENRE=Sertaneja
TTITLE0=Pense em mim
TTITLE1=Entre tapas e beijos
TTITLE2=Doce mistério
TTITLE3=Casa Separa
TTITLE4=Fui dando porrada
TTITLE5=Festa de rodeio
TTITLE6=Temporal de amor
TTITLE7=Achei uma louca
TTITLE8=mexe mexe
TTITLE9=Dor de amor não tem jeito
TTITLE10=Tudo de novo
TTITLE11=Entre um Gole e outro
EXTD=bY:\neu.vilasboas@bol.com.br
EXTT0=
EXTT1=
EXTT2=
EXTT3=
EXTT4=
EXTT5=
EXTT6=
EXTT7=
EXTT8=
EXTT9=
EXTT10=
EXTT11=
PLAYORDER=
